<svg width="40" height="50" viewBox="0 0 40 50" fill="none" xmlns="http://www.w3.org/2000/svg">
<path d="M32.1074 23.7851C34.9733 21.7669 37.308 19.1852 38.6811 16.5152C40.2729 13.42 40.4292 10.4534 39.1207 8.16205C38.0506 6.28814 36.3544 5.09971 34.3446 4.81548C33.3559 4.67576 32.322 4.75411 31.2967 5.0281V1.55958C31.2967 0.698192 30.6037 0 29.7494 0H10.2508C9.3962 0 8.70352 0.698322 8.70352 1.55958V5.02784C7.6784 4.75398 6.64452 4.67563 5.65569 4.81548C3.64573 5.09958 1.94955 6.28814 0.879376 8.16205C-0.429153 10.4536 -0.273035 13.42 1.3189 16.5152C2.69204 19.1851 5.02672 21.7669 7.89269 23.785C8.50313 24.2149 8.57237 24.6762 8.52282 24.9877C8.46671 25.3405 8.24289 25.6255 7.95266 25.7135C7.51649 25.8458 6.683 25.5858 5.65556 24.4584C4.915 23.6458 3.66092 23.5922 2.85459 24.3388C2.04839 25.0854 1.99524 26.3496 2.73592 27.162C4.64138 29.2527 6.46228 29.7348 7.73606 29.7348C8.31754 29.7348 8.78499 29.6345 9.09439 29.5405C9.75567 29.34 10.3548 28.9918 10.8603 28.5361C12.3037 30.536 14.3763 32.0459 16.7826 32.7677V38.506H11.9707C9.69994 38.506 7.8524 40.3681 7.8524 42.657V48.0541C7.8524 49.1288 8.71678 50 9.78296 50H30.2173C31.2835 50 32.1479 49.1288 32.1479 48.0541V42.6569C32.1479 40.368 30.3005 38.5059 28.0298 38.5059H23.2175V32.7675C25.6237 32.0457 27.6963 30.5359 29.1398 28.536C29.6455 28.9918 30.2445 29.3399 30.9059 29.5403C31.2153 29.6341 31.6826 29.7347 32.2642 29.7347C33.538 29.7345 35.359 29.2523 37.2644 27.1619C38.0051 26.349 37.9519 25.0852 37.1457 24.3386C36.3395 23.5921 35.0854 23.6456 34.3447 24.4583C33.3172 25.5856 32.4842 25.8453 32.0475 25.7134C31.7572 25.6254 31.5333 25.3404 31.4772 24.9875C31.4277 24.6762 31.4969 24.2149 32.1074 23.7851ZM28.2865 42.6569V46.1081H11.7133V42.6569C11.7133 42.514 11.8286 42.3977 11.9704 42.3977H28.0295C28.1712 42.3977 28.2865 42.5141 28.2865 42.6569ZM4.83868 14.6759C4.28912 13.6076 3.49077 11.6 4.3155 10.1556C4.7818 9.33919 5.40022 8.88697 6.20629 8.77307C6.95907 8.66695 7.84018 8.85882 8.70339 9.28484V19.3718C7.04119 17.9489 5.67294 16.2978 4.83868 14.6759ZM31.2965 19.3719V9.28458C32.1596 8.8583 33.0408 8.6663 33.7935 8.77307C34.5997 8.88697 35.218 9.33919 35.684 10.1556C36.5089 11.6 35.7104 13.6076 35.161 14.6759C34.327 16.2978 32.9587 17.9489 31.2965 19.3719Z" fill="#EC6B10"/>
</svg>
